<svg width="500" height="500" viewBox="0 0 500 500" fill="none" xmlns="http://www.w3.org/2000/svg">
<path opacity="0.7" d="M432.07 167.09C432.07 167.09 459.95 239.09 420.77 311.59C381.59 384.09 300.89 422.39 236.3 455.14C171.71 487.89 104.64 471.94 72.77 418.3C40.9 364.66 84.61 326.37 84.67 249.88C84.73 173.39 73.22 153.14 114.67 88.52C156.12 23.9 257.73 9.59001 334.57 57.52C411.41 105.45 432.07 167.09 432.07 167.09Z" fill="white"/>
<path d="M64.5898 208.93C82.7798 188.81 113.26 186.56 136.96 173.37C177.75 150.67 193.56 98.98 230.67 70.66C254.1 52.78 285.76 45.85 314.07 49.77C354.26 55.33 392.07 82.27 403.43 121.77C406.688 133.272 407.853 145.266 406.87 157.18C405.05 180.73 399.99 204.58 404.77 227.71C410.03 253.21 426.62 274.71 436.53 298.8C448.87 328.8 450.53 362.41 445.29 394.38C441.69 416.2 434.52 438.23 419.53 454.49C418.4 455.72 417.22 456.89 416.02 458.04H252.41C242.15 444.95 234.41 429.46 225.34 415.72C202.62 381.13 166.24 356.47 126.51 344.91C108.71 339.73 89.4298 336.64 75.1298 324.85C60.4098 312.71 53.6498 293.35 50.7198 274.5C47.1798 251.64 49.0998 226.06 64.5898 208.93Z" fill="#6F73D2"/>
<path opacity="0.7" d="M64.5898 208.93C82.7798 188.81 113.26 186.56 136.96 173.37C177.75 150.67 193.56 98.98 230.67 70.66C254.1 52.78 285.76 45.85 314.07 49.77C354.26 55.33 392.07 82.27 403.43 121.77C406.688 133.272 407.853 145.266 406.87 157.18C405.05 180.73 399.99 204.58 404.77 227.71C410.03 253.21 426.62 274.71 436.53 298.8C448.87 328.8 450.53 362.41 445.29 394.38C441.69 416.2 434.52 438.23 419.53 454.49C418.4 455.72 417.22 456.89 416.02 458.04H252.41C242.15 444.95 234.41 429.46 225.34 415.72C202.62 381.13 166.24 356.47 126.51 344.91C108.71 339.73 89.4298 336.64 75.1298 324.85C60.4098 312.71 53.6498 293.35 50.7198 274.5C47.1798 251.64 49.0998 226.06 64.5898 208.93Z" fill="white"/>
<path d="M150.013 125.671C149.85 125.155 149.773 124.614 149.787 124.072C149.793 121.929 150.537 119.855 151.891 118.205C153.429 116.283 154.247 113.875 154.201 111.404C154.201 109.547 153.464 108.842 152.186 108.842C150.908 108.842 150.161 109.547 150.161 111.404V114.243H146.336V111.682C146.336 107.512 148.303 105.139 152.294 105.139C156.285 105.139 158.252 107.512 158.252 111.682C158.252 114.462 157.514 116.467 155.528 119.148C153.946 121.302 153.464 122.563 153.464 124.231C153.459 124.718 153.509 125.205 153.611 125.681L150.013 125.671ZM153.729 127.488V131.459H149.797V127.488H153.729Z" fill="#263238"/>
<path d="M168.78 144.386L177.628 149.261L172.349 139.501C177.045 135.99 180.355 130.91 181.688 125.164" stroke="#263238" stroke-linecap="round" stroke-linejoin="round"/>
<path d="M156.629 145.667C159.985 145.305 163.265 144.421 166.352 143.045" stroke="#263238" stroke-linecap="round" stroke-linejoin="round"/>
<path d="M124 120.429C124 134.467 137.026 145.855 153.1 145.855" stroke="#263238" stroke-linecap="round" stroke-linejoin="round"/>
<path d="M129.368 105.715C128.546 106.727 127.803 107.803 127.146 108.932" stroke="#263238" stroke-linecap="round" stroke-linejoin="round"/>
<path d="M182.2 120.429C182.2 106.39 169.174 95.0022 153.1 95.0022C145.828 94.9157 138.749 97.371 133.064 101.952" stroke="#263238" stroke-linecap="round" stroke-linejoin="round"/>
<path d="M255.78 217.87C284.2 225.15 295.09 245.69 296.58 262.97C298.37 283.8 281.16 338.9 280.96 346.38C279.96 383.43 268.3 401.29 266.2 429.53H238.47C238.47 429.53 235.06 354.89 232.96 346.38C230.86 337.87 223.05 292.73 221.26 268.92C218.45 231.5 230.99 219.71 230.99 219.71C243 209.69 255.78 217.87 255.78 217.87Z" fill="#263238"/>
<path d="M237.5 261.46C241.901 266.078 247.093 269.871 252.83 272.66C252.83 272.66 251.31 333.38 253.21 338.92C255.11 344.46 257.5 350.82 251.21 429.53" stroke="white" stroke-linecap="round" stroke-linejoin="round"/>
<path d="M254.71 423.38C254.71 423.38 249.17 419.43 237.71 420.22C237.71 420.22 236.88 433.97 235.32 437.97C233.76 441.97 225.53 448.9 224.01 450.09C222.49 451.28 222.48 455.43 222.48 455.43H257.28C256.839 449.478 255.912 443.572 254.51 437.77L254.71 423.38Z" fill="white"/>
<path d="M254.71 423.38C254.71 423.38 249.17 419.43 237.71 420.22C237.71 420.22 236.88 433.97 235.32 437.97C233.76 441.97 225.53 448.9 224.01 450.09C222.49 451.28 222.48 455.43 222.48 455.43H257.28C256.839 449.478 255.912 443.572 254.51 437.77L254.71 423.38Z" stroke="#263238" stroke-linecap="round" stroke-linejoin="round"/>
<path d="M247.52 425.16C247.52 425.16 246.7 437.82 244.74 441.16C243.688 442.995 242.389 444.678 240.88 446.16" stroke="#263238" stroke-linecap="round" stroke-linejoin="round"/>
<path d="M239.88 447.91C239.88 447.91 238.13 450.09 236.18 450.38C234.23 450.67 224 450.09 224 450.09L228.17 446.48C228.17 446.48 236.71 445 239.88 447.91Z" fill="#6F73D2" stroke="#263238" stroke-linecap="round" stroke-linejoin="round"/>
<path d="M243.54 445C243.54 445 236.11 440.73 230.82 443.95" stroke="#263238" stroke-linecap="round" stroke-linejoin="round"/>
<path d="M245.33 442.05C245.33 442.05 240.14 438 234.03 440.22" stroke="#263238" stroke-linecap="round" stroke-linejoin="round"/>
<path d="M247.52 437.64C247.52 437.64 241.95 433.3 236.07 436.06" stroke="#263238" stroke-linecap="round" stroke-linejoin="round"/>
<path d="M248.28 432.13C248.28 432.13 241.52 428.49 236.59 431.25" stroke="#263238" stroke-linecap="round" stroke-linejoin="round"/>
<path d="M257.28 455.43V458H253.28C252.253 457.44 251.101 457.146 249.93 457.146C248.76 457.146 247.608 457.44 246.58 458H227.79C225.806 457.992 223.847 457.551 222.05 456.71L222.45 455.43H257.28Z" fill="#6F73D2" stroke="#263238" stroke-linecap="round" stroke-linejoin="round"/>
<path d="M252.3 422.59L251.4 428.2C251.4 428.2 240.95 424.81 235.18 427.01V420.12C235.18 420.12 245.93 416.33 252.3 422.59Z" fill="#6F73D2" stroke="#263238" stroke-linecap="round" stroke-linejoin="round"/>
<path d="M254.51 437.77C254.51 437.77 254.51 444.03 250.72 446.12C246.93 448.21 242.72 450.43 242.28 455.4H245.33C245.33 455.4 244.33 452.7 248.28 450.4C252.23 448.1 254.39 446.73 255.71 443.17L254.51 437.77Z" fill="#6F73D2" stroke="#263238" stroke-linecap="round" stroke-linejoin="round"/>
<path d="M267.71 423.38C267.71 423.38 262.17 419.43 250.71 420.22C250.71 420.22 249.88 433.97 248.32 437.97C246.76 441.97 238.53 448.9 237.01 450.09C235.49 451.28 235.48 455.43 235.48 455.43H270.28C269.839 449.478 268.912 443.572 267.51 437.77L267.71 423.38Z" fill="white"/>
<path d="M267.71 423.38C267.71 423.38 262.17 419.43 250.71 420.22C250.71 420.22 249.88 433.97 248.32 437.97C246.76 441.97 238.53 448.9 237.01 450.09C235.49 451.28 235.48 455.43 235.48 455.43H270.28C269.839 449.478 268.912 443.572 267.51 437.77L267.71 423.38Z" stroke="#263238" stroke-linecap="round" stroke-linejoin="round"/>
<path d="M260.52 425.16C260.52 425.16 259.7 437.82 257.74 441.16C256.688 442.995 255.389 444.678 253.88 446.16" stroke="#263238" stroke-linecap="round" stroke-linejoin="round"/>
<path d="M252.88 447.91C252.88 447.91 251.13 450.09 249.18 450.38C247.23 450.67 237 450.09 237 450.09L241.17 446.48C241.17 446.48 249.71 445 252.88 447.91Z" fill="#6F73D2" stroke="#263238" stroke-linecap="round" stroke-linejoin="round"/>
<path d="M256.54 445C256.54 445 249.11 440.73 243.82 443.95" stroke="#263238" stroke-linecap="round" stroke-linejoin="round"/>
<path d="M258.33 442.05C258.33 442.05 253.14 438 247.03 440.22" stroke="#263238" stroke-linecap="round" stroke-linejoin="round"/>
<path d="M260.52 437.64C260.52 437.64 254.95 433.3 249.07 436.06" stroke="#263238" stroke-linecap="round" stroke-linejoin="round"/>
<path d="M261.28 432.13C261.28 432.13 254.52 428.49 249.59 431.25" stroke="#263238" stroke-linecap="round" stroke-linejoin="round"/>
<path d="M270.28 455.43V458H266.28C265.253 457.44 264.101 457.146 262.93 457.146C261.76 457.146 260.608 457.44 259.58 458H240.79C238.806 457.992 236.847 457.551 235.05 456.71L235.45 455.43H270.28Z" fill="#6F73D2" stroke="#263238" stroke-linecap="round" stroke-linejoin="round"/>
<path d="M265.3 422.59L264.4 428.2C264.4 428.2 253.95 424.81 248.18 427.01V420.12C248.18 420.12 258.93 416.33 265.3 422.59Z" fill="#6F73D2" stroke="#263238" stroke-linecap="round" stroke-linejoin="round"/>
<path d="M267.51 437.77C267.51 437.77 267.51 444.03 263.72 446.12C259.93 448.21 255.72 450.43 255.28 455.4H258.33C258.33 455.4 257.33 452.7 261.28 450.4C265.23 448.1 267.39 446.73 268.71 443.17L267.51 437.77Z" fill="#6F73D2" stroke="#263238" stroke-linecap="round" stroke-linejoin="round"/>
<path d="M286.8 258.42C295.29 272.92 281.58 327.78 277.1 342.55C277.1 342.55 277.64 362.7 274.47 373.55C271.3 384.4 265.3 416.96 265.3 416.96" stroke="white" stroke-linecap="round" stroke-linejoin="round"/>
<path d="M242 353.1C242 353.1 238.93 352.96 235.93 349.67" stroke="white" stroke-linecap="round" stroke-linejoin="round"/>
<path d="M269.18 345.49C269.18 345.49 269.71 350.73 263.91 353.1" stroke="white" stroke-linecap="round" stroke-linejoin="round"/>
<path d="M249.52 274.24C249.52 274.24 242.45 274.77 237.09 270.81" stroke="white" stroke-linecap="round" stroke-linejoin="round"/>
<path d="M266.55 262.33C266.55 262.33 259.69 264.79 257.05 269.12" stroke="white" stroke-linecap="round" stroke-linejoin="round"/>
<path d="M257 272.54C257 272.54 265.18 272.7 271.77 269.12" stroke="white" stroke-linecap="round" stroke-linejoin="round"/>
<path d="M243.16 247C243.16 247 246.4 262.92 250.94 267.67" stroke="white" stroke-linecap="round" stroke-linejoin="round"/>
<path d="M266.55 240.74C266.55 240.74 270.41 253.06 280 251.56" stroke="white" stroke-linecap="round" stroke-linejoin="round"/>
<path d="M226.88 244.11C226.88 244.11 225.14 254.17 222.24 254.19" stroke="white" stroke-linecap="round" stroke-linejoin="round"/>
<path d="M191.24 239C194.78 237.78 197.01 230.49 198.72 222.59C199.9 217.12 200.84 211.36 201.79 207.12C202.123 205.46 202.595 203.831 203.2 202.25L194.5 172.8C189.17 174.8 184.07 210.93 182.05 223.43C180 236.3 184.29 241.32 191.24 239Z" fill="white"/>
<path opacity="0.4" d="M194 219.92C194.386 220.811 195.054 221.551 195.902 222.024C196.749 222.498 197.729 222.679 198.69 222.54C199.87 217.07 200.81 211.31 201.76 207.07L197.76 199.75C197.76 199.75 190.87 213.2 194 219.92Z" fill="#6F73D2"/>
<path d="M191.24 239C194.78 237.78 197.01 230.49 198.72 222.59C199.9 217.12 200.84 211.36 201.79 207.12C202.123 205.46 202.595 203.831 203.2 202.25L194.5 172.8C189.17 174.8 184.07 210.93 182.05 223.43C180 236.3 184.29 241.32 191.24 239Z" stroke="#263238" stroke-linecap="round" stroke-linejoin="round"/>
<path d="M202.26 124.3C196.38 130.83 190.05 160.67 195.48 173.51C200.91 186.35 247.75 183.82 252.48 178.39C257.21 172.96 247.78 162.74 249.59 153.56C251.4 144.38 257.98 120.7 236.87 115.37C230.818 113.796 224.464 113.79 218.409 115.352C212.353 116.915 206.796 119.994 202.26 124.3Z" fill="#263238"/>
<path d="M268.61 219.87C268.61 219.87 268.78 175.26 260.51 168.03C260.51 168.03 247.86 160.84 223.6 162.73C213.437 163.549 203.6 166.697 194.85 171.93C188.08 186.46 199.93 213.45 211.15 221.03L221.89 232.33C221.89 232.33 220 239.51 231 242.7C253.59 249.23 283.94 236.06 268.61 219.87Z" fill="#6F73D2"/>
<path opacity="0.15" d="M196.61 200C200.14 209.15 205.72 217.36 211.15 221L221.89 232.3C221.59 233.899 221.863 235.552 222.66 236.97C240.66 243.31 240.91 235.97 240.91 235.97C234.42 236.97 220.85 226.97 220.85 226.97C220.85 226.97 220.74 224.8 225.33 222.25C229.92 219.7 241.86 223.81 241.86 223.81C236.09 229.35 231.22 228.75 233.22 230.59C235.22 232.43 241.01 229.59 241.01 229.59C241.01 229.59 254.36 224.83 254.56 230.59C254.76 236.35 251.41 238.45 251.41 238.45C259.701 237.019 267.176 232.587 272.41 226C271.671 223.653 270.366 221.524 268.61 219.8C268.598 208.982 267.957 198.174 266.69 187.43L257 196C257.71 196.64 257 199.95 257 199.95C257 199.95 252.53 209.21 246.34 213.45C240.15 217.69 224.84 211.78 224.84 211.78C220.5 214.35 214.21 213.45 214.21 213.45L211.1 205.1C203.92 208.82 197 200.43 196.61 200Z" fill="black" fill-opacity="0.7"/>
<path d="M268.61 219.87C268.61 219.87 268.78 175.26 260.51 168.03C260.51 168.03 247.86 160.84 223.6 162.73C213.437 163.549 203.6 166.697 194.85 171.93C188.08 186.46 199.93 213.45 211.15 221.03L221.89 232.33C221.89 232.33 220 239.51 231 242.7C253.59 249.23 283.94 236.06 268.61 219.87Z" stroke="#263238" stroke-linecap="round" stroke-linejoin="round"/>
<path d="M244.13 162.3C244.85 167.18 234.9 191.39 222.79 193.22C205.28 195.88 202.6 174.98 204.22 170.1C205.84 165.22 214 169.16 211.15 156.18C208.3 143.2 244.13 162.3 244.13 162.3Z" fill="white" stroke="#263238" stroke-linecap="round" stroke-linejoin="round"/>
<path d="M248.71 148.25C248.71 148.25 245.22 160 246.21 168.11C247.2 176.22 249.35 200.46 243.76 211.85L241.86 213.48C243.345 207.509 243.985 201.359 243.76 195.21C243.76 195.21 242.67 204.44 241.86 208.6C242.775 203.091 242.775 197.469 241.86 191.96C240.33 183.1 235.63 166.46 238.52 155.06C241.41 143.66 248.71 148.25 248.71 148.25Z" fill="#263238"/>
<path d="M197.64 146C197.64 146 185.69 174.07 189.07 192.47C192.45 210.87 203.82 207.91 203.82 207.91C203.82 207.91 195.36 209.62 191.92 196.97C188.48 184.32 196.58 161.33 196.58 161.33L197.64 146Z" fill="#263238"/>
<path d="M218.45 168.11C218.45 168.11 221.35 174.78 225.96 176.58C230.57 178.38 233.12 177.65 235.16 172.35C237.2 167.05 218.45 168.11 218.45 168.11Z" fill="#263238"/>
<path d="M214.83 164.77C215.706 167.3 217.402 169.465 219.65 170.92C230.57 178.61 235.99 177.85 244.13 162.3C246.62 157.54 245.18 153.02 246.75 149.25C250.91 139.31 247.96 128.25 242.56 122.45C229.31 108.13 207.25 115.91 203.98 131.13C201.9 140.8 206.13 146.59 209.72 153.86" fill="white"/>
<path d="M214.83 164.77C215.706 167.3 217.402 169.465 219.65 170.92C230.57 178.61 235.99 177.85 244.13 162.3C246.62 157.54 245.18 153.02 246.75 149.25C250.91 139.31 247.96 128.25 242.56 122.45C229.31 108.13 207.25 115.91 203.98 131.13C201.9 140.8 206.13 146.59 209.72 153.86" stroke="#263238" stroke-linecap="round" stroke-linejoin="round"/>
<path d="M236.35 141.86C234.78 141.09 233.018 140.797 231.282 141.02C229.547 141.242 227.916 141.969 226.59 143.11" stroke="#263238" stroke-linecap="round" stroke-linejoin="round"/>
<path d="M241.42 143.67C239.97 147.38 240.57 153.09 242.59 154.97C245.5 157.67 242.32 159.76 239.97 159.76" stroke="#263238" stroke-linecap="round" stroke-linejoin="round"/>
<path d="M229.3 148.17C229.21 149.43 229.68 150.49 230.3 150.53C230.92 150.57 231.57 149.59 231.66 148.33C231.75 147.07 231.28 146.01 230.66 145.96C230.04 145.91 229.39 146.9 229.3 148.17Z" fill="#263238"/>
<path d="M242.79 148.17C242.7 149.43 243.16 150.49 243.79 150.53C244.42 150.57 245.06 149.59 245.14 148.33C245.22 147.07 244.77 146.01 244.14 145.96C243.51 145.91 242.87 146.9 242.79 148.17Z" fill="#263238"/>
<path d="M248.44 143.11C248.44 143.11 247.82 140.56 243.99 142.02" stroke="#263238" stroke-linecap="round" stroke-linejoin="round"/>
<path d="M238.52 163.65C236.35 162.93 234.09 166.65 235.72 167.9C237.35 169.15 237.8 164.29 237.8 164.29" stroke="#263238" stroke-linecap="round" stroke-linejoin="round"/>
<path d="M224.14 130.16C219.51 133.63 226.59 140.29 218.33 148.25L216.64 151.45C216.64 151.45 217.25 144.9 212.78 145.79C208.31 146.68 209.72 161 209.72 161L205.18 154.49C205.18 154.49 190.77 126.73 209.72 117.35C232.63 106.02 241.61 119.4 241.61 119.4C251.85 125.31 252.67 136.7 248 145.4C248 145.4 249.16 138.22 246.21 132.4C243.76 127.63 233 123.57 224.14 130.16Z" fill="#263238"/>
<path d="M214.23 147.28C214.23 147.28 211.09 143.28 207.84 143.67C204.59 144.06 204.84 149.88 205.91 151.72C206.98 153.56 209.77 159.1 211.58 159.22C213.39 159.34 214.47 159.1 214.23 158.02" fill="white"/>
<path d="M214.23 147.28C214.23 147.28 211.09 143.28 207.84 143.67C204.59 144.06 204.84 149.88 205.91 151.72C206.98 153.56 209.77 159.1 211.58 159.22C213.39 159.34 214.47 159.1 214.23 158.02" stroke="#263238" stroke-linecap="round" stroke-linejoin="round"/>
<path d="M221.94 129.08C221.94 129.08 224.84 137 223.03 143.08C223.03 143.08 227.73 140.5 228.09 137.61C228.09 137.61 228.41 137.83 228.09 140.02L230.5 138.57C231.029 138.565 231.549 138.429 232.013 138.174C232.478 137.919 232.871 137.554 233.16 137.11C233.88 135.68 233.76 128.32 233.76 128.32C233.76 128.32 235.76 135.55 240.58 138.42C240.58 138.42 236.35 134.27 236.35 131.22C238.319 134.219 240.933 136.74 244 138.6C244 138.6 246.68 138.14 248.72 141.6C248.72 141.6 253.49 131.76 246.22 126.21C238.95 120.66 221.94 129.08 221.94 129.08Z" fill="#263238"/>
<path d="M213.33 162.41C213.33 162.41 214.23 175.23 220.02 182.83" stroke="#263238" stroke-linecap="round" stroke-linejoin="round"/>
<path d="M237.6 180.35C237.6 180.35 229.6 184.01 227.6 184.64C226.988 184.883 226.429 185.246 225.958 185.705C225.486 186.165 225.109 186.714 224.85 187.32" stroke="#263238" stroke-linecap="round" stroke-linejoin="round"/>
<path d="M205.18 180.81C205.18 180.81 212.05 183.94 214.1 184.18C216.15 184.42 217.1 187.32 217.1 187.32" stroke="#263238" stroke-linecap="round" stroke-linejoin="round"/>
<path d="M230.5 175.69C230.5 175.69 225.08 180.2 223.99 183.34" stroke="#263238" stroke-linecap="round" stroke-linejoin="round"/>
<path d="M256 180.87C257.19 191.37 262.53 197.74 264.7 197.75C266.12 197.75 266.09 192.61 266.09 192.61C270.89 193.51 280.77 196.95 287.55 199.43L288.15 199.65C290.3 200.44 292.1 201.12 293.25 201.56L294.13 201.89L294.65 202.09C293.14 204.09 291.65 206.09 290.26 208.09C285.02 215.59 280.26 223.34 274.57 231.29C269.91 237.84 271.57 241.19 274.57 244.29C274.57 244.29 282.68 251.99 285.05 251.43C287.42 250.87 293.96 248.7 293.76 247.12C293.56 245.54 290.99 246.52 290.99 246.52C290.955 245.762 290.821 245.013 290.59 244.29C290.2 242.96 285.14 242.29 285.14 242.29C284.635 240.706 283.8 239.247 282.69 238.01C282.69 238.01 298.27 221.8 305.86 216.46C311.45 212.52 321.37 199.69 317.62 196.16C310.62 189.64 269.45 167.95 258.27 168.06C258.3 168.11 254.84 170.37 256 180.87Z" fill="white"/>
<path opacity="0.4" d="M290.29 208.14C294.19 208.024 298.008 206.996 301.44 205.14C298.08 205.37 294.68 202.14 294.68 202.14C293.17 204.09 291.71 206.1 290.29 208.14Z" fill="#6F73D2"/>
<path d="M256 180.87C257.19 191.37 262.53 197.74 264.7 197.75C266.12 197.75 266.09 192.61 266.09 192.61C270.89 193.51 280.77 196.95 287.55 199.43L288.15 199.65C290.3 200.44 292.1 201.12 293.25 201.56L294.13 201.89L294.65 202.09C293.14 204.09 291.65 206.09 290.26 208.09C285.02 215.59 280.26 223.34 274.57 231.29C269.91 237.84 271.57 241.19 274.57 244.29C274.57 244.29 282.68 251.99 285.05 251.43C287.42 250.87 293.96 248.7 293.76 247.12C293.56 245.54 290.99 246.52 290.99 246.52C290.955 245.762 290.821 245.013 290.59 244.29C290.2 242.96 285.14 242.29 285.14 242.29C284.635 240.706 283.8 239.247 282.69 238.01C282.69 238.01 298.27 221.8 305.86 216.46C311.45 212.52 321.37 199.69 317.62 196.16C310.62 189.64 269.45 167.95 258.27 168.06C258.3 168.11 254.84 170.37 256 180.87Z" stroke="#263238" stroke-linecap="round" stroke-linejoin="round"/>
<path d="M291 246.58C289.637 247.039 288.217 247.305 286.78 247.37" stroke="#263238" stroke-linecap="round" stroke-linejoin="round"/>
<path d="M287.11 242.7C286.921 242.933 286.818 243.225 286.818 243.525C286.818 243.825 286.921 244.117 287.11 244.35C287.72 245.4 288.33 245.53 288.33 245.53" stroke="#263238" stroke-linecap="round" stroke-linejoin="round"/>
<path d="M294.68 202.09C294.68 202.09 299.13 206.09 303.58 205.09" stroke="#263238" stroke-linecap="round" stroke-linejoin="round"/>
<path d="M266.12 192.61C266.12 192.61 264.75 192.27 263.55 194.29" stroke="#263238" stroke-linecap="round" stroke-linejoin="round"/>
<path d="M221.89 232.33C221.89 232.33 243.98 239.79 249.52 233.54" stroke="#263238" stroke-linecap="round" stroke-linejoin="round"/>
<path d="M264.73 197.75C264.73 197.75 261.22 200.85 255.28 194.29" stroke="#263238" stroke-linecap="round" stroke-linejoin="round"/>
<path d="M260 206.13C260 206.13 253.41 225.52 238.51 230.66" stroke="#263238" stroke-linecap="round" stroke-linejoin="round"/>
<path d="M201.27 175.69C201.27 175.69 210.27 203.53 227.27 205.13" stroke="#263238" stroke-linecap="round" stroke-linejoin="round"/>
<path d="M190.84 219.48C196.3 212.64 217.05 196.28 217.05 196.28L228.05 175.06C228.05 175.06 232.05 171.06 233.2 170.9C234.03 170.77 236.79 172.9 237.11 174.74C237.3 175.74 236.11 179.69 236.11 179.69C233.95 179.08 234.32 176.42 234.32 176.42L233.01 175.42L231.52 177.64C231.52 177.64 236.01 181.56 236.23 182.95C236.37 183.84 235.3 185.34 235.3 185.34C235.3 185.34 237.3 188.4 236.06 190.34C234.864 192.174 233.111 193.575 231.06 194.34C226.99 201.57 221.19 203.53 221.19 203.53C221.19 203.53 198.19 243.15 187.41 239.12" fill="white"/>
<path d="M190.84 219.48C196.3 212.64 217.05 196.28 217.05 196.28L228.05 175.06C228.05 175.06 232.05 171.06 233.2 170.9C234.03 170.77 236.79 172.9 237.11 174.74C237.3 175.74 236.11 179.69 236.11 179.69C233.95 179.08 234.32 176.42 234.32 176.42L233.01 175.42L231.52 177.64C231.52 177.64 236.01 181.56 236.23 182.95C236.37 183.84 235.3 185.34 235.3 185.34C235.3 185.34 237.3 188.4 236.06 190.34C234.864 192.174 233.111 193.575 231.06 194.34C226.99 201.57 221.19 203.53 221.19 203.53C221.19 203.53 198.19 243.15 187.41 239.12" stroke="#263238" stroke-linecap="round" stroke-linejoin="round"/>
<path d="M231 194.29C231 194.29 232.3 191.21 232.15 189.76" stroke="#263238" stroke-linecap="round" stroke-linejoin="round"/>
<path d="M232.09 190.83C232.09 190.83 233.94 190.74 234.35 190.14" stroke="#263238" stroke-linecap="round" stroke-linejoin="round"/>
<path d="M235.28 185.29C234.195 184.247 233.006 183.319 231.73 182.52" stroke="#263238" stroke-linecap="round" stroke-linejoin="round"/>
<g opacity="0.2">
<path opacity="0.2" d="M223.6 117.59C223.6 117.59 228.48 121.59 227.25 133.7" stroke="white" stroke-linecap="round" stroke-linejoin="round"/>
<path opacity="0.2" d="M228.25 116.34C232.082 118.631 235.293 121.828 237.6 125.65C239.563 129.152 242.574 131.949 246.21 133.65" stroke="white" stroke-linecap="round" stroke-linejoin="round"/>
<path opacity="0.2" d="M237.09 117.59C237.09 117.59 244.57 124.44 247.24 125.02" stroke="white" stroke-linecap="round" stroke-linejoin="round"/>
<path opacity="0.2" d="M217.11 121.31C217.11 121.31 217.97 135.53 212.69 140.94" stroke="white" stroke-linecap="round" stroke-linejoin="round"/>
<path opacity="0.2" d="M209.72 124.3C209.72 124.3 208.89 136.3 203.2 142.02C197.51 147.74 191.46 168.1 191.07 175.09" stroke="white" stroke-linecap="round" stroke-linejoin="round"/>
<path opacity="0.2" d="M203.82 153.2C203.82 153.2 201.48 160.67 202.41 165.84" stroke="white" stroke-linecap="round" stroke-linejoin="round"/>
<path opacity="0.2" d="M243.76 166.38C243.76 166.38 244.87 180.32 245.4 185.29C245.697 188.784 245.697 192.296 245.4 195.79" stroke="white" stroke-linecap="round" stroke-linejoin="round"/>
</g>
</svg>
